<svg xmlns="http://www.w3.org/2000/svg" width="17" height="17" viewBox="0 0 17 17">
    <g fill="none" fill-rule="evenodd">
        <g>
            <g>
                <g>
                    <g>
                        <g>
                            <path d="M0 0L16 0 16 16 0 16z" transform="translate(-1165.000000, -477.000000) translate(1152.000000, 466.000000) translate(5.000000, 5.000000) translate(8.666667, 6.666667)"/>
                        </g>
                        <g fill-rule="nonzero">
                            <g fill="#FFF">
                                <path d="M9.667 5.667L5.667 5.667 5.667 9.667 4.333 9.667 4.333 5.667 0.333 5.667 0.333 4.333 4.333 4.333 4.333 0.333 5.667 0.333 5.667 4.333 9.667 4.333z" transform="translate(-1165.000000, -477.000000) translate(1152.000000, 466.000000) translate(5.000000, 5.000000) translate(8.666667, 6.666667) translate(3.000000, 3.000000)"/>
                            </g>
                            <path d="M0 0H16V16H0z" transform="translate(-1165.000000, -477.000000) translate(1152.000000, 466.000000) translate(5.000000, 5.000000) translate(8.666667, 6.666667)"/>
                        </g>
                        <path d="M0 0H16V16H0z" transform="translate(-1165.000000, -477.000000) translate(1152.000000, 466.000000) translate(5.000000, 5.000000) translate(8.666667, 6.666667)"/>
                    </g>
                </g>
            </g>
        </g>
    </g>
</svg>
